<mxfile host="app.diagrams.net" modified="2020-10-10T08:16:49.795Z" agent="5.0 (Windows NT 10.0; Win64; x64) AppleWebKit/537.36 (KHTML, like Gecko) Chrome/85.0.4183.121 Safari/537.36" etag="Dc5gK7Quk8AsUXrS0wDy" version="13.7.9" type="github">
  <diagram id="Tx6c0xuKm6BGvQ7pqGdG" name="Page-1">
    <mxGraphModel dx="1038" dy="548" grid="1" gridSize="10" guides="1" tooltips="1" connect="1" arrows="1" fold="1" page="1" pageScale="1" pageWidth="827" pageHeight="1169" math="0" shadow="0">
      <root>
        <mxCell id="0" />
        <mxCell id="1" parent="0" />
        <mxCell id="IEpPb71m4KgrKvG6c-_I-1" value="&lt;b&gt;访问API Server 的Secret&lt;/b&gt;" style="rounded=0;whiteSpace=wrap;html=1;fillColor=#33FFFF;" parent="1" vertex="1">
          <mxGeometry y="145" width="120" height="60" as="geometry" />
        </mxCell>
        <mxCell id="IEpPb71m4KgrKvG6c-_I-2" value="&lt;b&gt;下载 image 的Secret&lt;/b&gt;" style="rounded=0;whiteSpace=wrap;html=1;fillColor=#00FFFF;" parent="1" vertex="1">
          <mxGeometry y="270" width="120" height="60" as="geometry" />
        </mxCell>
        <mxCell id="IEpPb71m4KgrKvG6c-_I-3" value="" style="rounded=1;whiteSpace=wrap;html=1;fillColor=#0000FF;" parent="1" vertex="1">
          <mxGeometry x="200" y="70" width="370" height="310" as="geometry" />
        </mxCell>
        <mxCell id="IEpPb71m4KgrKvG6c-_I-4" value="&lt;b&gt;&lt;font style=&quot;font-size: 14px&quot;&gt;Service Account&lt;/font&gt;&lt;/b&gt;" style="text;html=1;align=center;verticalAlign=middle;resizable=0;points=[];autosize=1;" parent="1" vertex="1">
          <mxGeometry x="205" y="90" width="130" height="20" as="geometry" />
        </mxCell>
        <mxCell id="IEpPb71m4KgrKvG6c-_I-5" value="" style="rounded=0;whiteSpace=wrap;html=1;fillColor=#D4E1F5;" parent="1" vertex="1">
          <mxGeometry x="315" y="120" width="155" height="110" as="geometry" />
        </mxCell>
        <mxCell id="IEpPb71m4KgrKvG6c-_I-6" value="" style="rounded=0;whiteSpace=wrap;html=1;fillColor=#D4E1F5;" parent="1" vertex="1">
          <mxGeometry x="315" y="250" width="160" height="110" as="geometry" />
        </mxCell>
        <mxCell id="IEpPb71m4KgrKvG6c-_I-7" value="&lt;b&gt;&lt;font style=&quot;font-size: 14px&quot;&gt;TOKENS&lt;/font&gt;&lt;/b&gt;" style="shape=document;whiteSpace=wrap;html=1;boundedLbl=1;fillColor=#FFB570;" parent="1" vertex="1">
          <mxGeometry x="331.25" y="150" width="117.5" height="70" as="geometry" />
        </mxCell>
        <mxCell id="IEpPb71m4KgrKvG6c-_I-8" value="&lt;b&gt;&lt;font style=&quot;font-size: 14px&quot;&gt;TOKENS&lt;/font&gt;&lt;/b&gt;" style="shape=document;whiteSpace=wrap;html=1;boundedLbl=1;fillColor=#FFB570;" parent="1" vertex="1">
          <mxGeometry x="331.25" y="290" width="108.75" height="70" as="geometry" />
        </mxCell>
        <mxCell id="IEpPb71m4KgrKvG6c-_I-9" value="&lt;font style=&quot;font-size: 14px&quot;&gt;&lt;b&gt;secrets&lt;/b&gt;&lt;/font&gt;" style="text;html=1;align=center;verticalAlign=middle;resizable=0;points=[];autosize=1;" parent="1" vertex="1">
          <mxGeometry x="315" y="120" width="60" height="20" as="geometry" />
        </mxCell>
        <mxCell id="IEpPb71m4KgrKvG6c-_I-12" value="&lt;b&gt;&lt;font style=&quot;font-size: 14px&quot;&gt;imagePullSecrets&lt;/font&gt;&lt;/b&gt;" style="text;html=1;align=center;verticalAlign=middle;resizable=0;points=[];autosize=1;" parent="1" vertex="1">
          <mxGeometry x="312" y="257" width="130" height="20" as="geometry" />
        </mxCell>
        <mxCell id="yhQJfd44EcYXpzWxQt0A-8" style="edgeStyle=orthogonalEdgeStyle;rounded=0;orthogonalLoop=1;jettySize=auto;html=1;exitX=1;exitY=0.5;exitDx=0;exitDy=0;" edge="1" parent="1" source="IEpPb71m4KgrKvG6c-_I-1" target="IEpPb71m4KgrKvG6c-_I-5">
          <mxGeometry relative="1" as="geometry" />
        </mxCell>
        <mxCell id="yhQJfd44EcYXpzWxQt0A-9" style="edgeStyle=orthogonalEdgeStyle;rounded=0;orthogonalLoop=1;jettySize=auto;html=1;exitX=1;exitY=0.5;exitDx=0;exitDy=0;" edge="1" parent="1">
          <mxGeometry relative="1" as="geometry">
            <mxPoint x="120" y="299.5" as="sourcePoint" />
            <mxPoint x="315" y="299.5" as="targetPoint" />
          </mxGeometry>
        </mxCell>
      </root>
    </mxGraphModel>
  </diagram>
</mxfile>
